# xmcd
#
# Track frame offsets:
#	182
#	16057
#	33515
#	50057
#	62875
#	81795
#	101373
#	117879
#	134207
#	146147
#	160607
#	174257
#
# Disc length: 2581 seconds
#
# Revision: 2
# Processed by: cddbd v1.5.1PL0 Copyright (c) Steve Scherf et al.
# Submitted via: MusicWizard 7.1.1b
#
DISCID=a00a130c
DTITLE=Kenny Rogers - Greatest Hits
DYEAR=1980
DGENRE=Country
TTITLE0=The Gambler
TTITLE1=Lady
TTITLE2=Don't Fall In Love With A Dreamer
TTITLE3=Ruby Don't Take Your Love To Town
TTITLE4=She Believes In Me
TTITLE5=Coward Of The County
TTITLE6=Lucille
TTITLE7=You Decorated My Life
TTITLE8=Reuben James
TTITLE9=Love The World Away
TTITLE10=Every Time Two Fools Collide
TTITLE11=Long Arm Of The Law
EXTD=CD (c) Liberty Records Capitol DIDX 413 - CDP 7-46004-2\nReleased 1980 on LP as C 064-83003 o
EXTD=n United Artists Records Germany\n
EXTT0=
EXTT1=
EXTT2=Vocal Duet by Kim Carnes
EXTT3=
EXTT4=
EXTT5=
EXTT6=
EXTT7=
EXTT8=
EXTT9=
EXTT10=Vocal Duet by Dottie West
EXTT11=
PLAYORDER=
